<?xml version="1.0" encoding="windows-1252"?>
<!-- Generator: Adobe Illustrator 21.0.0, SVG Export Plug-In . SVG Version: 6.00 Build 0)  -->
<svg version="1.1" id="Layer_1" xmlns="http://www.w3.org/2000/svg" xmlns:xlink="http://www.w3.org/1999/xlink" x="0px" y="0px" viewBox="0 0 100.353 100.352" style="enable-background:new 0 0 100.353 100.352;" xml:space="preserve">
<g>
	<path d="M81.27,37.463C81.405,20.22,67.486,6.083,50.242,5.948c-8.328-0.057-16.229,3.126-22.181,8.987   c-5.952,5.86-9.266,13.688-9.331,22.041c-0.094,12.096,6.83,23.154,17.687,28.399l0.055,27.18c0.001,0.6,0.359,1.141,0.911,1.376   c0.19,0.081,0.39,0.121,0.589,0.121c0.378,0,0.75-0.143,1.035-0.414l10.779-10.265l10.821,10.223   c0.436,0.412,1.075,0.525,1.625,0.287s0.906-0.78,0.905-1.38l-0.054-26.897C74.064,60.539,81.175,49.613,81.27,37.463z    M50.812,80.215c-0.581-0.548-1.487-0.545-2.065,0.004l-9.281,8.839l-0.045-22.413c3.304,1.19,6.768,1.816,10.334,1.844   c0.084,0,0.168,0.001,0.252,0.001c3.465,0,6.843-0.568,10.08-1.673l0.044,22.201L50.812,80.215z M61.026,63.258   c-0.019,0.008-0.037,0.015-0.056,0.023c-3.546,1.494-7.306,2.228-11.192,2.208c-3.999-0.031-7.857-0.879-11.467-2.521   c-10.159-4.619-16.667-14.812-16.58-25.97c0.059-7.552,3.055-14.628,8.436-19.926c5.327-5.245,12.359-8.125,19.826-8.125   c0.076,0,0.151,0,0.227,0.001C65.809,9.07,78.393,21.851,78.271,37.44C78.182,48.721,71.414,58.853,61.026,63.258z"/>
	<path d="M64.205,32.712l-8.854-1.357l-3.899-8.061c-0.249-0.514-0.768-0.842-1.338-0.847c-0.004,0-0.008,0-0.012,0   c-0.566,0-1.085,0.319-1.34,0.826l-4.025,7.999l-8.87,1.218c-0.565,0.078-1.038,0.47-1.219,1.011s-0.038,1.139,0.367,1.541   l6.363,6.301l-1.583,8.813c-0.101,0.562,0.126,1.132,0.585,1.472c0.458,0.338,1.07,0.387,1.579,0.126l7.957-4.104l7.896,4.229   c0.222,0.119,0.465,0.178,0.708,0.178c0.307,0,0.613-0.094,0.872-0.28c0.465-0.332,0.7-0.899,0.608-1.462l-1.444-8.837l6.46-6.201   c0.412-0.395,0.564-0.99,0.392-1.535C65.236,33.198,64.77,32.799,64.205,32.712z M55.911,39.859   c-0.356,0.342-0.521,0.837-0.442,1.324l1.082,6.617l-5.912-3.166c-0.221-0.119-0.464-0.178-0.708-0.178   c-0.236,0-0.472,0.056-0.688,0.167l-5.957,3.072l1.185-6.598c0.087-0.486-0.07-0.983-0.421-1.331l-4.764-4.717l6.641-0.912   c0.489-0.067,0.914-0.371,1.136-0.812l3.013-5.988l2.919,6.034c0.215,0.444,0.635,0.754,1.123,0.83l6.629,1.016L55.911,39.859z"/>
</g>
</svg>